<svg fill="none" height="512" viewBox="0 0 24 24" width="512" xmlns="http://www.w3.org/2000/svg" xmlns:xlink="http://www.w3.org/1999/xlink"><clipPath id="clip0_17_17306"><path d="m0 0h24v24h-24z"/></clipPath><g clip-path="url(#clip0_17_17306)"><path d="m18.3 5.71c-.39-.39-1.02-.39-1.41 0l-4.89 4.88-4.89003-4.89c-.39-.39-1.02-.39-1.41 0s-.39 1.02 0 1.41l4.89003 4.89-4.89003 4.89c-.39.39-.39 1.02 0 1.41s1.02.39 1.41 0l4.89003-4.89 4.89 4.89c.39.39 1.02.39 1.41 0s.39-1.02 0-1.41l-4.89-4.89 4.89-4.89c.38-.38.38-1.02 0-1.4z" fill="currentColor"/></g></svg>